# Blender v2.92.0 OBJ File: ''
# www.blender.org
mtllib box.mtl
o Cube
v 1.000000 1.000000 -1.000000
v 1.000000 -1.000000 -1.000000
v 1.000000 1.000000 1.000000
v 1.000000 -1.000000 1.000000
v -1.000000 1.000000 -1.000000
v -1.000000 -1.000000 -1.000000
v -1.000000 1.000000 1.000000
v -1.000000 -1.000000 1.000000
vt 0.983598 0.229416
vt 0.997867 0.705990
vt 0.997867 0.229416
vt 0.986779 0.670660
vt 0.816119 0.841319
vt 0.816119 0.670660
vt 0.986779 0.158681
vt 0.816119 0.329340
vt 0.816119 0.158681
vt 0.299923 0.334326
vt 0.287616 0.726918
vt 0.287616 0.334326
vt 0.986779 0.500000
vt 0.816119 0.500000
vt 0.986779 0.329340
vt 0.983598 0.705990
vt 0.986779 0.841319
vt 0.299923 0.726918
vn 0.0000 1.0000 0.0000
vn 0.0000 0.0000 1.0000
vn -1.0000 0.0000 0.0000
vn 0.0000 -1.0000 0.0000
vn 1.0000 0.0000 0.0000
vn 0.0000 0.0000 -1.0000
usemtl Material
s off
f 5/1/1 3/2/1 1/3/1
f 3/4/2 8/5/2 4/6/2
f 7/7/3 6/8/3 8/9/3
f 2/10/4 8/11/4 6/12/4
f 1/13/5 4/6/5 2/14/5
f 5/15/6 2/14/6 6/8/6
f 5/1/1 7/16/1 3/2/1
f 3/4/2 7/17/2 8/5/2
f 7/7/3 5/15/3 6/8/3
f 2/10/4 4/18/4 8/11/4
f 1/13/5 3/4/5 4/6/5
f 5/15/6 1/13/6 2/14/6
